<?xml version="1.0" encoding="UTF-8"?>
<svg id="Layer_2" data-name="Layer 2" xmlns="http://www.w3.org/2000/svg" viewBox="0 0 5070.8 6868.32">
  <defs>
    <style>
      .cls-1 {
        fill: #fff;
      }
    </style>
  </defs>
  <g id="Layer_1-2" data-name="Layer 1">
    <g>
      <g>
        <path class="cls-1" d="m536.69,1158.02c-156.38,0-275.9-42.56-358.54-127.68C67.29,925.93,11.88,775.49,11.88,579.01S67.29,228.15,178.15,127.68C260.79,42.57,380.31,0,536.69,0s275.89,42.57,358.54,127.68c110.35,100.47,165.54,250.9,165.54,451.33s-55.18,346.92-165.54,451.33c-82.65,85.13-202.17,127.68-358.54,127.68Zm216.02-293.96c52.95-66.81,79.43-161.83,79.43-285.05s-26.61-217.62-79.8-284.68c-53.2-67.05-125.08-100.59-215.65-100.59s-162.82,33.41-216.76,100.22c-53.95,66.81-80.92,161.82-80.92,285.05s26.97,218.24,80.92,285.05c53.94,66.81,126.2,100.21,216.76,100.21s162.57-33.41,216.02-100.21Z"/>
        <path class="cls-1" d="m1699.91,734.16h-232.35v393.43h-227.15V33.41h476.57c109.86,0,197.46,28.21,262.78,84.63,65.33,56.41,97.99,143.77,97.99,262.04,0,129.16-32.66,220.47-97.99,273.92-65.33,53.45-158.61,80.17-279.86,80.17Zm106.89-227.89c29.69-26.23,44.54-67.8,44.54-124.71s-14.97-97.49-44.92-121.74c-29.94-24.24-71.89-36.38-125.82-36.38h-213.05v322.17h213.05c53.93,0,96-13.11,126.19-39.34Z"/>
        <path class="cls-1" d="m3010.86,649.53h-531.5v281.34h605.73v196.72h-829.18V33.41h802.45v193.75h-579.01v232.35h531.5v190.03Z"/>
        <path class="cls-1" d="m4148.09,1127.59h-228.64l-446.88-777.21v777.21h-213.04V33.41h239.77l435.74,763.85V33.41h213.04v1094.18Z"/>
        <path class="cls-1" d="m824.72,2341.55c-81.66,74.73-186.08,112.09-313.26,112.09-157.37,0-281.1-50.48-371.16-151.43-90.08-101.44-135.1-240.51-135.1-417.19,0-191.02,51.22-338.24,153.66-441.68,89.07-90.06,202.4-135.1,339.98-135.1,184.1,0,318.7,60.38,403.82,181.12,47.01,67.81,72.25,135.85,75.72,204.14h-228.64c-14.84-52.45-33.9-92.05-57.16-118.77-41.57-47.51-103.18-71.26-184.84-71.26s-148.72,33.53-196.71,100.58c-48.01,67.07-72.01,161.95-72.01,284.68s25.36,214.66,76.09,275.77c50.72,61.13,115.18,91.68,193.38,91.68s141.29-26.23,183.36-78.69c23.25-28.21,42.55-70.52,57.9-126.94h226.41c-19.79,119.27-70.28,216.27-151.43,290.99Z"/>
        <path class="cls-1" d="m1791.22,2198.28h-403.07l-75.72,224.92h-239.03l390.47-1094.18h258.33l387.49,1094.18h-247.94l-70.52-224.92Zm-63.83-188.55l-136.59-430.55-141.04,430.55h277.63Z"/>
        <path class="cls-1" d="m2248.49,1329.02h228.64v897.47h541.9v196.72h-770.54v-1094.18Z"/>
        <path class="cls-1" d="m3177.13,1329.02h228.64v897.47h541.9v196.72h-770.53v-1094.18Z"/>
      </g>
      <g>
        <path class="cls-1" d="m449.85,4118.98c53.94,0,97.73-5.94,131.39-17.82,63.84-22.76,95.76-65.07,95.76-126.94,0-36.12-15.84-64.08-47.51-83.88-31.68-19.3-81.41-36.37-149.21-51.22l-115.8-25.98c-113.83-25.73-192.52-53.69-236.06-83.88-73.75-50.48-110.61-129.41-110.61-236.8,0-97.99,35.63-179.39,106.9-244.23,71.26-64.82,175.93-97.24,314-97.24,115.3,0,213.66,30.56,295.07,91.68,81.4,61.12,124.09,149.83,128.05,266.12h-219.73c-3.97-65.81-32.66-112.58-86.11-140.3-35.63-18.3-79.93-27.47-132.88-27.47-58.9,0-105.91,11.88-141.04,35.63-35.15,23.75-52.71,56.91-52.71,99.47,0,39.1,17.32,68.29,51.96,87.59,22.27,12.88,69.78,27.96,142.53,45.28l188.55,45.28c82.64,19.8,145,46.28,187.07,79.43,65.32,51.48,97.99,125.95,97.99,223.44s-38.23,182.98-114.69,249.05c-76.46,66.06-184.47,99.1-324.02,99.1s-254.62-32.53-336.27-97.62C40.83,4142.61,0,4053.17,0,3939.34h218.24c6.92,49.99,20.53,87.35,40.83,112.09,37.12,45.04,100.7,67.55,190.78,67.55Z"/>
        <path class="cls-1" d="m1531.41,3883.66h-232.35v393.43h-227.15v-1094.18h476.57c109.87,0,197.46,28.21,262.78,84.63,65.33,56.41,97.99,143.77,97.99,262.04,0,129.16-32.66,220.47-97.99,273.92-65.33,53.45-158.61,80.17-279.86,80.17Zm106.89-227.89c29.69-26.23,44.54-67.8,44.54-124.71s-14.97-97.49-44.91-121.74c-29.95-24.24-71.89-36.38-125.82-36.38h-213.05v322.17h213.05c53.93,0,96-13.11,126.19-39.34Z"/>
        <path class="cls-1" d="m2609.26,4052.17h-403.07l-75.72,224.92h-239.03l390.46-1094.18h258.33l387.49,1094.18h-247.93l-70.53-224.92Zm-63.83-188.55l-136.59-430.55-141.04,430.55h277.63Z"/>
        <path class="cls-1" d="m3838.55,4195.44c-81.66,74.73-186.08,112.09-313.26,112.09-157.37,0-281.1-50.48-371.16-151.43-90.08-101.44-135.1-240.51-135.1-417.19,0-191.02,51.22-338.24,153.66-441.68,89.08-90.06,202.4-135.1,339.98-135.1,184.1,0,318.7,60.38,403.82,181.12,47.01,67.81,72.25,135.85,75.72,204.14h-228.64c-14.85-52.45-33.91-92.05-57.16-118.77-41.57-47.51-103.18-71.26-184.84-71.26s-148.72,33.53-196.71,100.58c-48.01,67.07-72,161.95-72,284.68s25.35,214.66,76.09,275.77c50.72,61.13,115.17,91.68,193.37,91.68s141.29-26.23,183.35-78.69c23.26-28.21,42.56-70.52,57.9-126.94h226.41c-19.8,119.27-70.28,216.27-151.43,290.99Z"/>
        <path class="cls-1" d="m4926.05,3799.04h-531.5v281.34h605.73v196.72h-829.17v-1094.18h802.45v193.75h-579.01v232.35h531.5v190.03Z"/>
        <path class="cls-1" d="m449.85,5414.59c53.94,0,97.73-5.94,131.39-17.82,63.84-22.76,95.76-65.07,95.76-126.93,0-36.12-15.84-64.09-47.51-83.88-31.68-19.3-81.41-36.37-149.21-51.22l-115.8-25.98c-113.83-25.73-192.52-53.69-236.06-83.88-73.75-50.48-110.61-129.41-110.61-236.8,0-97.99,35.63-179.39,106.9-244.23,71.26-64.82,175.93-97.24,314-97.24,115.3,0,213.66,30.56,295.07,91.68,81.4,61.13,124.09,149.84,128.05,266.12h-219.73c-3.97-65.81-32.66-112.58-86.11-140.3-35.63-18.3-79.93-27.47-132.88-27.47-58.9,0-105.91,11.88-141.04,35.63-35.15,23.75-52.71,56.91-52.71,99.47,0,39.1,17.32,68.29,51.96,87.59,22.27,12.88,69.78,27.96,142.53,45.28l188.55,45.28c82.64,19.8,145,46.28,187.07,79.43,65.32,51.48,97.99,125.95,97.99,223.44s-38.23,182.98-114.69,249.05c-76.46,66.07-184.47,99.1-324.02,99.1s-254.62-32.54-336.27-97.62c-81.66-65.07-122.48-154.52-122.48-268.35h218.24c6.92,49.99,20.53,87.35,40.83,112.09,37.12,45.04,100.7,67.55,190.78,67.55Z"/>
        <path class="cls-1" d="m1719.22,5572.7v-488.45h-427.58v488.45h-226.41v-1094.18h226.41v417.19h427.58v-417.19h227.15v1094.18h-227.15Z"/>
        <path class="cls-1" d="m2146.79,4478.52h227.15v1094.18h-227.15v-1094.18Z"/>
        <path class="cls-1" d="m3051.69,5179.27h-232.35v393.43h-227.15v-1094.18h476.57c109.86,0,197.46,28.21,262.78,84.62,65.33,56.42,97.99,143.77,97.99,262.04,0,129.16-32.66,220.47-97.99,273.92-65.33,53.45-158.62,80.17-279.86,80.17Zm106.89-227.89c29.69-26.23,44.54-67.8,44.54-124.71s-14.98-97.49-44.91-121.74c-29.95-24.24-71.89-36.38-125.82-36.38h-213.05v322.17h213.05c53.93,0,96-13.11,126.19-39.34Z"/>
        <path class="cls-1" d="m814.32,6390.26H282.82v281.34h605.73v196.71H59.38v-1094.18h802.45v193.75H282.82v232.35h531.5v190.03Z"/>
        <path class="cls-1" d="m1707.34,6643.4h-403.08l-75.71,224.92h-239.03l390.46-1094.18h258.33l387.49,1094.18h-247.93l-70.52-224.92Zm-63.84-188.55l-136.59-430.54-141.04,430.54h277.63Z"/>
        <path class="cls-1" d="m2629.3,6439.25h-236.06v429.06h-223.44v-1094.18h536.7c76.7,1.48,135.72,10.89,177.04,28.21,41.32,17.33,76.34,42.81,105.04,76.46,23.76,27.72,42.56,58.4,56.42,92.05,13.85,33.66,20.79,72,20.79,115.06,0,51.96-13.12,103.07-39.34,153.29-26.24,50.24-69.54,85.74-129.91,106.52,50.48,20.3,86.22,49.12,107.26,86.48,21.03,37.37,31.55,94.4,31.55,171.11v73.49c0,49.99,1.97,83.88,5.94,101.7,5.94,28.21,19.79,49,41.57,62.36v27.46h-251.65c-6.93-24.24-11.88-43.8-14.84-58.64-5.94-30.68-9.16-62.1-9.65-94.27l-1.49-101.7c-1-69.77-13.73-116.29-38.23-139.55-24.5-23.25-70.4-34.89-137.7-34.89Zm138.82-198.94c45.53-20.78,68.29-61.86,68.29-123.22,0-66.31-22.02-110.85-66.07-133.62-24.75-12.87-61.87-19.3-111.35-19.3h-265.75v293.96h259.07c51.46,0,90.06-5.94,115.8-17.82Z"/>
        <path class="cls-1" d="m4057.53,5774.14v193.75h-327.36v900.43h-230.12v-900.43h-328.85v-193.75h886.33Z"/>
        <path class="cls-1" d="m4843.65,6868.32v-488.45h-427.57v488.45h-226.41v-1094.18h226.41v417.19h427.57v-417.19h227.15v1094.18h-227.15Z"/>
      </g>
    </g>
  </g>
</svg>