<?xml version="1.0" encoding="UTF-8"?>
<svg id="Layer_2" data-name="Layer 2" xmlns="http://www.w3.org/2000/svg" viewBox="0 0 5137.65 2201.53">
  <defs>
    <style>
      .cls-1 {
        fill: #fff;
      }
    </style>
  </defs>
  <g id="Layer_1-2" data-name="Layer 1">
    <g>
      <path class="cls-1" d="m317.72,685.55c-92.58,0-163.33-25.19-212.26-75.59C39.84,548.15,7.03,459.08,7.03,342.77S39.84,135.06,105.47,75.59C154.39,25.2,225.14,0,317.72,0s163.33,25.2,212.26,75.59c65.33,59.48,98,148.54,98,267.19s-32.67,205.38-98,267.19c-48.93,50.39-119.68,75.59-212.26,75.59Zm127.88-174.02c31.35-39.55,47.02-95.8,47.02-168.75s-15.75-128.83-47.24-168.53c-31.5-39.69-74.05-59.55-127.66-59.55s-96.39,19.78-128.32,59.33c-31.94,39.55-47.9,95.8-47.9,168.75s15.96,129.2,47.9,168.75c31.93,39.55,74.71,59.33,128.32,59.33s96.24-19.78,127.88-59.33Z"/>
      <path class="cls-1" d="m1006.35,434.62h-137.55v232.91h-134.47V19.78h282.13c65.04,0,116.89,16.7,155.57,50.1s58.01,85.11,58.01,155.13c0,76.46-19.34,130.52-58.01,162.16s-93.9,47.46-165.67,47.46Zm63.28-134.91c17.58-15.53,26.37-40.13,26.37-73.83s-8.86-57.71-26.59-72.07c-17.73-14.35-42.56-21.53-74.49-21.53h-126.12v190.72h126.12c31.93,0,56.83-7.76,74.71-23.29Z"/>
      <path class="cls-1" d="m1782.42,384.52h-314.65v166.55h358.59v116.46h-490.87V19.78h475.05v114.7h-342.77v137.55h314.65v112.5Z"/>
      <path class="cls-1" d="m2455.66,667.53h-135.35l-264.55-460.11v460.11h-126.12V19.78h141.94l257.96,452.2V19.78h126.12v647.75Z"/>
      <path class="cls-1" d="m3288.87,619.19c-48.34,44.24-110.16,66.36-185.45,66.36-93.16,0-166.41-29.88-219.73-89.65-53.32-60.05-79.98-142.38-79.98-246.97,0-113.08,30.32-200.24,90.97-261.47,52.73-53.32,119.82-79.98,201.27-79.98,108.98,0,188.67,35.75,239.06,107.23,27.83,40.14,42.77,80.42,44.82,120.85h-135.35c-8.79-31.05-20.07-54.49-33.84-70.31-24.61-28.12-61.08-42.19-109.42-42.19s-88.04,19.85-116.46,59.55c-28.42,39.7-42.63,95.88-42.63,168.53s15.01,127.08,45.04,163.26c30.03,36.19,68.18,54.27,114.48,54.27s83.64-15.53,108.54-46.58c13.77-16.7,25.19-41.75,34.28-75.15h134.03c-11.72,70.61-41.6,128.03-89.65,172.27Z"/>
      <path class="cls-1" d="m3861.04,534.38h-238.62l-44.82,133.15h-141.5L3667.24,19.78h152.93l229.39,647.75h-146.78l-41.75-133.15Zm-37.79-111.62l-80.86-254.88-83.5,254.88h164.36Z"/>
      <path class="cls-1" d="m4131.74,19.78h135.35v531.3h320.8v116.46h-456.15V19.78Z"/>
      <path class="cls-1" d="m4681.49,19.78h135.35v531.3h320.8v116.46h-456.15V19.78Z"/>
      <path class="cls-1" d="m266.31,1340.93c31.93,0,57.86-3.52,77.78-10.55,37.79-13.47,56.69-38.52,56.69-75.15,0-21.38-9.38-37.94-28.12-49.66-18.75-11.43-48.2-21.53-88.33-30.32l-68.55-15.38c-67.39-15.23-113.97-31.79-139.75-49.66-43.66-29.88-65.48-76.61-65.48-140.19,0-58.01,21.09-106.2,63.28-144.58,42.19-38.38,104.15-57.57,185.89-57.57,68.26,0,126.49,18.09,174.68,54.27,48.19,36.19,73.46,88.7,75.81,157.54h-130.08c-2.35-38.96-19.34-66.65-50.98-83.06-21.09-10.83-47.32-16.26-78.66-16.26-34.87,0-62.7,7.03-83.5,21.09-20.81,14.06-31.2,33.69-31.2,58.89,0,23.15,10.25,40.43,30.76,51.86,13.18,7.62,41.31,16.55,84.38,26.81l111.62,26.81c48.92,11.72,85.84,27.4,110.74,47.02,38.67,30.47,58.01,74.56,58.01,132.28s-22.63,108.33-67.9,147.44-109.2,58.67-191.82,58.67-150.73-19.26-199.07-57.79C24.17,1354.92,0,1301.97,0,1234.58h129.2c4.1,29.59,12.15,51.71,24.17,66.36,21.97,26.66,59.61,39.99,112.94,39.99Z"/>
      <path class="cls-1" d="m906.59,1201.62h-137.55v232.91h-134.47v-647.75h282.13c65.04,0,116.89,16.7,155.57,50.1s58.01,85.11,58.01,155.13c0,76.46-19.34,130.52-58.01,162.16s-93.9,47.46-165.67,47.46Zm63.28-134.91c17.58-15.53,26.37-40.13,26.37-73.83s-8.86-57.71-26.59-72.07c-17.73-14.35-42.56-21.53-74.49-21.53h-126.12v190.72h126.12c31.93,0,56.83-7.76,74.71-23.29Z"/>
      <path class="cls-1" d="m1544.68,1301.38h-238.62l-44.82,133.15h-141.5l231.15-647.75h152.93l229.39,647.75h-146.78l-41.75-133.15Zm-37.79-111.62l-80.86-254.88-83.5,254.88h164.36Z"/>
      <path class="cls-1" d="m2272.41,1386.19c-48.34,44.24-110.16,66.36-185.45,66.36-93.16,0-166.41-29.88-219.73-89.65-53.32-60.05-79.98-142.38-79.98-246.97,0-113.08,30.32-200.24,90.97-261.47,52.73-53.32,119.82-79.98,201.27-79.98,108.98,0,188.67,35.75,239.06,107.23,27.83,40.14,42.77,80.42,44.82,120.85h-135.35c-8.79-31.05-20.07-54.49-33.84-70.31-24.61-28.12-61.08-42.19-109.42-42.19s-88.04,19.85-116.46,59.55c-28.42,39.7-42.63,95.88-42.63,168.53s15.01,127.08,45.04,163.26c30.03,36.19,68.18,54.27,114.48,54.27s83.64-15.53,108.54-46.58c13.77-16.7,25.19-41.75,34.28-75.15h134.03c-11.72,70.61-41.6,128.03-89.65,172.27Z"/>
      <path class="cls-1" d="m2916.21,1151.52h-314.65v166.55h358.59v116.46h-490.87v-647.75h475.05v114.7h-342.77v137.55h314.65v112.5Z"/>
      <path class="cls-1" d="m3300.73,1340.93c31.93,0,57.86-3.52,77.78-10.55,37.79-13.47,56.69-38.52,56.69-75.15,0-21.38-9.38-37.94-28.12-49.66-18.75-11.43-48.2-21.53-88.33-30.32l-68.55-15.38c-67.39-15.23-113.97-31.79-139.75-49.66-43.66-29.88-65.48-76.61-65.48-140.19,0-58.01,21.09-106.2,63.28-144.58,42.19-38.38,104.15-57.57,185.89-57.57,68.26,0,126.49,18.09,174.68,54.27,48.19,36.19,73.46,88.7,75.81,157.54h-130.08c-2.35-38.96-19.34-66.65-50.98-83.06-21.09-10.83-47.32-16.26-78.66-16.26-34.87,0-62.7,7.03-83.5,21.09-20.81,14.06-31.2,33.69-31.2,58.89,0,23.15,10.25,40.43,30.76,51.86,13.18,7.62,41.31,16.55,84.38,26.81l111.62,26.81c48.92,11.72,85.84,27.4,110.74,47.02,38.67,30.47,58.01,74.56,58.01,132.28s-22.63,108.33-67.9,147.44-109.2,58.67-191.82,58.67-150.73-19.26-199.07-57.79c-48.34-38.52-72.51-91.47-72.51-158.86h129.2c4.1,29.59,12.15,51.71,24.17,66.36,21.97,26.66,59.61,39.99,112.94,39.99Z"/>
      <path class="cls-1" d="m4052.2,1434.53v-289.16h-253.12v289.16h-134.03v-647.75h134.03v246.97h253.12v-246.97h134.47v647.75h-134.47Z"/>
      <path class="cls-1" d="m4305.32,786.78h134.47v647.75h-134.47v-647.75Z"/>
      <path class="cls-1" d="m4841.02,1201.62h-137.55v232.91h-134.47v-647.75h282.13c65.04,0,116.89,16.7,155.57,50.1s58.01,85.11,58.01,155.13c0,76.46-19.34,130.52-58.01,162.16s-93.9,47.46-165.67,47.46Zm63.28-134.91c17.58-15.53,26.37-40.13,26.37-73.83s-8.86-57.71-26.59-72.07c-17.73-14.35-42.56-21.53-74.49-21.53h-126.12v190.72h126.12c31.93,0,56.83-7.76,74.71-23.29Z"/>
      <path class="cls-1" d="m482.08,1918.52H167.43v166.55h358.59v116.46H35.16v-647.75h475.05v114.7H167.43v137.55h314.65v112.5Z"/>
      <path class="cls-1" d="m1010.74,2068.38h-238.62l-44.82,133.15h-141.5l231.15-647.75h152.93l229.39,647.75h-146.78l-41.75-133.15Zm-37.79-111.62l-80.86-254.88-83.5,254.88h164.36Z"/>
      <path class="cls-1" d="m1556.54,1947.53h-139.75v254h-132.28v-647.75h317.72c45.41.88,80.34,6.45,104.81,16.7,24.46,10.26,45.19,25.34,62.18,45.26,14.06,16.41,25.19,34.57,33.4,54.49,8.2,19.93,12.3,42.63,12.3,68.12,0,30.76-7.77,61.01-23.29,90.75-15.53,29.74-41.16,50.76-76.9,63.06,29.88,12.02,51.05,29.08,63.5,51.2,12.45,22.12,18.68,55.89,18.68,101.29v43.51c0,29.59,1.17,49.66,3.52,60.21,3.52,16.7,11.71,29,24.61,36.91v16.26h-148.97c-4.11-14.35-7.03-25.93-8.79-34.72-3.52-18.16-5.42-36.76-5.71-55.81l-.88-60.21c-.59-41.31-8.13-68.84-22.63-82.62-14.5-13.77-41.68-20.65-81.52-20.65Zm82.18-117.77c26.95-12.3,40.43-36.62,40.43-72.95,0-39.25-13.04-65.62-39.11-79.1-14.65-7.61-36.63-11.43-65.92-11.43h-157.32v174.02h153.37c30.47,0,53.32-3.52,68.55-10.55Z"/>
      <path class="cls-1" d="m2402.05,1553.78v114.7h-193.8v533.06h-136.23v-533.06h-194.68v-114.7h524.71Z"/>
      <path class="cls-1" d="m2867.43,2201.53v-289.16h-253.12v289.16h-134.03v-647.75h134.03v246.97h253.12v-246.97h134.47v647.75h-134.47Z"/>
    </g>
  </g>
</svg>