<svg  viewBox="0 0 146 52" fill="none" xmlns="http://www.w3.org/2000/svg">
<path d="M144 29.5C143.9 29.4 143.8 29.3 143.6 29.2C131.9 18.6 110.6 10.1 85.6 7.5C85.3 7.5 84.9 7.4 84.6 7.4C82.5 3 78 0 72.7 0C67.5 0 63 3 60.7 7.3C60.3 7.3 60 7.4 59.7 7.4C34.7 9.9 13.4 18.2 1.6 28.8C1.5 28.9 1.4 29 1.2 29.1C0.400001 29.9 0 30.9 0 32.1C0 33.7 0.799999 35 2.1 35.8C2.2 35.8 2.2 35.9 2.3 35.9C21.6 46.6 41.4 50.9 72.6 51C103.8 51.1 123.6 46.9 143 36.3C143.1 36.3 143.1 36.2 143.2 36.2C144.5 35.5 145.3 34.1 145.3 32.5C145.3 31.4 144.8 30.3 144 29.5ZM23 30.9L17.3 31.6L13.2 30.9L27.3 21.7H33.1L23 30.9ZM45.5 30.8L40 31.7L35.5 30.9L45.6 21.8H51.2L45.5 30.8ZM66.9 31L62 31.8L56.9 30.9L61.2 21.9H68.5L66.9 31ZM83.3 31.8L78.4 31L76.9 21.9H84.2L88.4 30.9L83.3 31.8ZM105.2 31.9L99.7 31L94 22H99.6L109.6 31.1L105.2 31.9ZM128 32L122.3 31.2L112.3 22H118.1L132.2 31.2L128 32Z" fill="white"/>
</svg>
