<?xml version="1.0" encoding="UTF-8"?>
<svg id="Layer_2" data-name="Layer 2" xmlns="http://www.w3.org/2000/svg" viewBox="0 0 1057 460.02">
  <defs>
    <style>
      .cls-1 {
        fill: #fff;
      }
    </style>
  </defs>
  <g id="Layer_1-2" data-name="Layer 1">
    <g>
      <polygon class="cls-1" points="141.25 148.27 20.26 .12 0 .12 0 201.87 28.84 201.87 28.84 53.73 149.84 201.87 170.09 201.87 170.09 .12 141.25 .12 141.25 148.27"/>
      <polygon class="cls-1" points="339.91 174.44 250.57 174.44 250.57 106.77 316.83 106.77 316.83 79.47 250.57 79.47 250.57 27.56 337.09 27.56 337.09 .12 221.73 .12 221.73 201.87 339.91 201.87 339.91 174.44"/>
      <polygon class="cls-1" points="970.61 201.87 999.46 201.87 999.46 27.56 1054.19 27.56 1054.19 .12 915.89 .12 915.89 27.56 970.61 27.56 970.61 201.87"/>
      <polygon class="cls-1" points="141.25 403.61 20.26 255.46 0 255.46 0 457.21 28.84 457.21 28.84 309.06 149.84 457.21 170.09 457.21 170.09 255.46 141.25 255.46 141.25 403.61"/>
      <path class="cls-1" d="m280.82,255.46l-83.57,201.75h29.97l21.1-51.92h84.98l21.24,51.92h29.97l-83.43-201.75h-20.26Zm-20.96,122.54l31.09-74.99,31.09,74.99h-62.18Z"/>
      <polygon class="cls-1" points="372.97 282.9 427.7 282.9 427.7 457.21 456.54 457.21 456.54 282.9 511.27 282.9 511.27 255.46 372.97 255.46 372.97 282.9"/>
      <path class="cls-1" d="m676.86,375.05c0,17.26-4.22,30.53-12.66,39.82-10.69,11.91-24.71,17.87-42.07,17.87s-31.37-5.95-42.07-17.87c-8.44-9.29-12.66-22.56-12.66-39.82v-119.59h-28.84v118.18c0,24.76,6.99,44.74,20.96,59.93,7.78,8.35,17.09,14.84,27.93,19.49,10.83,4.64,22.39,6.96,34.68,6.96s23.71-2.32,34.54-6.96c10.83-4.64,20.14-11.14,27.93-19.49,14.07-15.29,21.1-35.27,21.1-59.93v-118.18h-28.84v119.59Z"/>
      <path class="cls-1" d="m864.4,350.28c6.19-5.06,11.04-11.18,14.56-18.36,3.52-7.18,5.27-14.89,5.27-23.14s-1.76-15.97-5.27-23.14c-3.52-7.18-8.37-13.3-14.56-18.36-9.85-7.88-22.93-11.82-39.25-11.82h-70.63v201.75h28.84v-95.11h23.07l71.75,95.11h34.89l-72.31-96.23c8.91-1.5,16.79-5.06,23.64-10.69Zm-81.04-15.48v-51.91h40.38c11.16,0,19.23,2.49,24.2,7.46,4.97,4.97,7.46,11.11,7.46,18.43s-2.49,13.46-7.46,18.43c-5.06,5.06-13.13,7.6-24.2,7.6h-40.38Z"/>
      <polygon class="cls-1" points="967.66 429.77 967.66 362.1 1033.93 362.1 1033.93 334.81 967.66 334.81 967.66 282.9 1054.19 282.9 1054.19 255.46 938.82 255.46 938.82 457.21 1057 457.21 1057 429.77 967.66 429.77"/>
      <polygon class="cls-1" points="871.02 202.04 871.02 174.56 665.97 101.02 871.02 27.49 871.02 0 627.65 87.28 384.28 0 384.28 27.49 589.33 101.02 384.28 174.56 384.28 202.04 627.65 114.76 871.02 202.04"/>
    </g>
  </g>
</svg>