<?xml version="1.0" encoding="UTF-8"?>
<svg xmlns="http://www.w3.org/2000/svg" viewBox="0 0 88.82 88.82">
  <defs>
    <style>
      .cls-1 {
        fill: #fff;
      }

      .cls-2 {
        mix-blend-mode: hard-light;
      }

      .cls-3 {
        isolation: isolate;
      }
    </style>
  </defs>
  <g class="cls-3">
    <g id="Layer_2" data-name="Layer 2">
      <g id="Layer_1-2" data-name="Layer 1">
        <g>
          <circle class="cls-2" cx="44.41" cy="44.41" r="44.41"/>
          <path class="cls-1" d="m30.49,30.78c.38-1.9,1.11-3.53,2.18-4.87,1.07-1.35,2.57-2.38,4.49-3.11,1.92-.73,4.45-1.09,7.57-1.09s5.43.32,7.31.96c1.88.64,3.37,1.53,4.46,2.66,1.09,1.13,1.84,2.45,2.24,3.94.41,1.5.61,3.1.61,4.81,0,3.08-.51,5.67-1.54,7.76-1.03,2.1-2.39,4-4.1,5.71l-7.05,6.86c-.51.51-1.08,1.09-1.7,1.73-.62.64-1.04,1.3-1.25,1.99h15.65v8.98h-29.89c0-3.21.48-6.23,1.44-9.07.96-2.84,2.75-5.61,5.36-8.31l7.95-8.08c1.15-1.15,1.98-2.25,2.47-3.3.49-1.05.74-2.43.74-4.14,0-1.92-.28-3.25-.83-3.98-.56-.73-1.3-1.09-2.24-1.09-.43,0-.83.08-1.22.22-.38.15-.74.44-1.06.87-.32.43-.58,1.04-.77,1.83-.19.79-.29,1.83-.29,3.11v1.92h-11.16c.04-2.31.26-4.41.64-6.32Z"/>
        </g>
      </g>
    </g>
  </g>
</svg>