<?xml version="1.0" encoding="UTF-8"?>
<svg xmlns="http://www.w3.org/2000/svg" viewBox="0 0 88.82 88.82">
  <defs>
    <style>
      .cls-1 {
        fill: #fff;
      }

      .cls-2 {
        mix-blend-mode: hard-light;
      }

      .cls-3 {
        isolation: isolate;
      }
    </style>
  </defs>
  <g class="cls-3">
    <g id="Layer_2" data-name="Layer 2">
      <g id="Layer_1-2" data-name="Layer 1">
        <g>
          <circle class="cls-2" cx="44.41" cy="44.41" r="44.41"/>
          <path class="cls-1" d="m33.7,24.69c2.35-2.22,5.86-3.33,10.52-3.33,2.78,0,5.09.28,6.93.83,1.84.56,3.3,1.37,4.39,2.44,1.09,1.07,1.86,2.38,2.31,3.94.45,1.56.67,3.35.67,5.36,0,.9-.11,1.83-.32,2.79-.21.96-.57,1.86-1.06,2.69-.49.83-1.14,1.57-1.96,2.21-.81.64-1.82,1.09-3.01,1.35v.13c2.65.51,4.51,1.68,5.58,3.5,1.07,1.82,1.6,3.97,1.6,6.45,0,5.13-1.24,8.82-3.72,11.06-2.48,2.24-6.18,3.37-11.1,3.37-2.57,0-4.8-.21-6.7-.64-1.9-.43-3.47-1.2-4.71-2.31-1.24-1.11-2.16-2.6-2.76-4.46-.6-1.86-.9-4.16-.9-6.89h11.16c0,1.28.07,2.35.22,3.21.15.86.35,1.58.61,2.18.51,1.11,1.41,1.67,2.69,1.67.68,0,1.24-.1,1.67-.29.43-.19.76-.56.99-1.09.23-.53.39-1.26.48-2.18.09-.92.13-2.08.13-3.5,0-2.22-.35-3.72-1.06-4.49-.71-.77-1.81-1.15-3.3-1.15h-3.01v-7.44h1.73c.9,0,1.67-.09,2.31-.26.64-.17,1.18-.49,1.6-.96.43-.47.75-1.12.96-1.96.21-.83.32-1.91.32-3.24,0-1.92-.25-3.22-.74-3.88-.49-.66-1.25-.99-2.28-.99-1.15,0-1.98.45-2.47,1.35-.49.9-.74,2.54-.74,4.94h-10.77c.13-4.75,1.37-8.21,3.72-10.39Z"/>
        </g>
      </g>
    </g>
  </g>
</svg>