<?xml version="1.0" encoding="UTF-8"?>
<svg id="Layer_2" data-name="Layer 2" xmlns="http://www.w3.org/2000/svg" viewBox="0 0 15884 4559.28">
  <defs>
    <style>
      .cls-1 {
        fill: #fff;
      }
    </style>
  </defs>
  <g id="Layer_1-2" data-name="Layer 1">
    <g>
      <path class="cls-1" d="m835.2,1797.2c100.14,0,181.46-11.03,243.94-33.08,118.53-42.25,177.79-120.81,177.79-235.68,0-67.06-29.42-118.98-88.2-155.74-58.82-35.83-151.15-67.53-277.02-95.1l-215-48.24c-211.34-47.76-357.43-99.68-438.27-155.74-136.92-93.72-205.36-240.26-205.36-439.65,0-181.92,66.16-333.06,198.47-453.43C363.85,60.19,558.18,0,814.53,0c214.08,0,396.69,56.74,547.84,170.21,151.13,113.49,230.38,278.19,237.74,494.09h-407.95c-7.36-122.19-60.64-209.02-159.87-260.48-66.15-33.98-148.39-50.99-246.7-50.99-109.35,0-196.63,22.05-261.86,66.15-65.25,44.1-97.85,105.67-97.85,184.68,0,72.59,32.15,126.8,96.47,162.63,41.35,23.9,129.55,51.92,264.62,84.07l350.07,84.07c153.44,36.76,269.2,85.92,347.31,147.47,121.28,95.57,181.92,233.85,181.92,414.84s-70.98,339.73-212.94,462.39-342.49,183.99-601.59,183.99-472.73-60.4-624.34-181.24C75.8,1841.09,0,1675.01,0,1463.67h405.2c12.85,92.82,38.12,162.18,75.8,208.11,68.91,83.62,186.97,125.42,354.2,125.42Z"/>
      <path class="cls-1" d="m2843.27,1360.3h-431.38v730.46h-421.74V59.26h884.82c203.98,0,366.61,52.37,487.89,157.12,121.28,104.75,181.92,266.92,181.92,486.51,0,239.81-60.64,409.33-181.92,508.56-121.28,99.23-294.49,148.85-519.59,148.85Zm198.47-423.11c55.13-48.69,82.69-125.87,82.69-231.54s-27.8-181-83.39-226.03c-55.6-45.01-133.47-67.53-233.61-67.53h-395.55v598.15h395.55c100.14,0,178.24-24.33,234.3-73.05Z"/>
      <path class="cls-1" d="m4844.45,1673.16h-748.37l-140.58,417.6h-443.79L4236.66,59.26h479.62l719.43,2031.5h-460.33l-130.93-417.6Zm-118.53-350.07l-253.59-799.37-261.87,799.37h515.46Z"/>
      <path class="cls-1" d="m7126.78,1939.16c-151.6,138.75-345.48,208.11-581.61,208.11-292.18,0-521.89-93.72-689.11-281.16-167.24-188.34-250.83-446.54-250.83-774.56,0-354.65,95.09-627.99,285.29-820.04,165.38-167.22,375.78-250.84,631.23-250.84,341.8,0,591.7,112.11,749.75,336.29,87.28,125.89,134.14,252.21,140.58,379.01h-424.49c-27.57-97.38-62.95-170.9-106.13-220.51-77.18-88.21-191.57-132.31-343.18-132.31s-276.12,62.26-365.23,186.75c-89.13,124.51-133.69,300.69-133.69,528.55s47.08,398.54,141.27,512.01c94.17,113.49,213.84,170.21,359.03,170.21s262.31-48.69,340.42-146.09c43.18-52.37,79.01-130.93,107.5-235.68h420.35c-36.76,221.44-130.48,401.54-281.16,540.26Z"/>
      <path class="cls-1" d="m9145.88,1203.19h-986.81v522.35h1124.63v365.23h-1539.47V59.26h1489.85v359.72h-1075.01v431.38h986.81v352.82Z"/>
      <path class="cls-1" d="m10351.82,1797.2c100.14,0,181.46-11.03,243.94-33.08,118.53-42.25,177.79-120.81,177.79-235.68,0-67.06-29.42-118.98-88.2-155.74-58.82-35.83-151.15-67.53-277.02-95.1l-215-48.24c-211.34-47.76-357.43-99.68-438.27-155.74-136.92-93.72-205.36-240.26-205.36-439.65,0-181.92,66.16-333.06,198.47-453.43C9880.47,60.19,10074.8,0,10331.14,0c214.08,0,396.69,56.74,547.84,170.21,151.13,113.49,230.38,278.19,237.74,494.09h-407.95c-7.36-122.19-60.64-209.02-159.87-260.48-66.15-33.98-148.39-50.99-246.7-50.99-109.35,0-196.63,22.05-261.86,66.15-65.25,44.1-97.85,105.67-97.85,184.68,0,72.59,32.15,126.8,96.47,162.63,41.35,23.9,129.55,51.92,264.62,84.07l350.07,84.07c153.44,36.76,269.2,85.92,347.31,147.47,121.28,95.57,181.92,233.85,181.92,414.84s-70.98,339.73-212.94,462.39c-141.96,122.66-342.49,183.99-601.59,183.99s-472.73-60.4-624.34-181.24c-151.6-120.81-227.41-286.89-227.41-498.23h405.2c12.85,92.82,38.12,162.18,75.8,208.11,68.91,83.62,186.97,125.42,354.2,125.42Z"/>
      <path class="cls-1" d="m12708.58,2090.76v-906.87h-793.86v906.87h-420.36V59.26h420.36v774.56h793.86V59.26h421.73v2031.5h-421.73Z"/>
      <path class="cls-1" d="m13502.43,59.26h421.74v2031.5h-421.74V59.26Z"/>
      <path class="cls-1" d="m15182.49,1360.3h-431.38v730.46h-421.74V59.26h884.82c203.98,0,366.61,52.37,487.89,157.12,121.28,104.75,181.92,266.92,181.92,486.51,0,239.81-60.64,409.33-181.92,508.56-121.28,99.23-294.49,148.85-519.59,148.85Zm198.46-423.11c55.14-48.69,82.69-125.87,82.69-231.54s-27.8-181-83.38-226.03c-55.6-45.01-133.48-67.53-233.61-67.53h-395.55v598.15h395.55c100.14,0,178.24-24.33,234.29-73.05Z"/>
    </g>
    <g>
      <path class="cls-1" d="m1511.91,3671.7h-986.81v522.35h1124.63v365.23H110.26v-2031.5h1489.85v359.72H525.11v431.38h986.81v352.82Z"/>
      <path class="cls-1" d="m3169.91,4141.68h-748.37l-140.58,417.6h-443.79l724.95-2031.5h479.62l719.43,2031.5h-460.33l-130.93-417.6Zm-118.53-350.07l-253.59-799.37-261.87,799.37h515.46Z"/>
      <path class="cls-1" d="m4881.66,3762.67h-438.27v796.61h-414.84v-2031.5h996.45c142.41,2.76,251.98,20.22,328.7,52.37,76.71,32.17,141.72,79.48,195.02,141.96,44.1,51.47,79.01,108.43,104.74,170.9,25.72,62.49,38.59,133.69,38.59,213.62,0,96.48-24.36,191.36-73.05,284.6-48.72,93.27-129.1,159.18-241.19,197.77,93.72,37.69,160.09,91.2,199.15,160.56,39.04,69.39,58.58,175.27,58.58,317.68v136.44c0,92.81,3.66,155.74,11.03,188.82,11.03,52.37,36.74,90.96,77.18,115.77v50.99h-467.22c-12.87-45.01-22.05-81.31-27.56-108.88-11.03-56.96-17.01-115.3-17.92-175.03l-2.76-188.82c-1.85-129.55-25.5-215.91-70.98-259.11-45.48-43.18-130.72-64.78-255.66-64.78Zm257.73-369.36c84.53-38.59,126.79-114.84,126.79-228.78,0-123.11-40.89-205.81-122.66-248.08-45.95-23.88-114.86-35.83-206.73-35.83h-493.41v545.78h481c95.55,0,167.21-11.03,215-33.08Z"/>
      <path class="cls-1" d="m7533.36,2527.78v359.72h-607.79v1671.78h-427.25v-1671.78h-610.55v-359.72h1645.59Z"/>
      <path class="cls-1" d="m8992.89,4559.28v-906.87h-793.86v906.87h-420.36v-2031.5h420.36v774.56h793.86v-774.56h421.73v2031.5h-421.73Z"/>
    </g>
  </g>
</svg>