<?xml version="1.0" encoding="UTF-8"?>
<svg id="Layer_2" data-name="Layer 2" xmlns="http://www.w3.org/2000/svg" viewBox="0 0 15854.21 2221.29">
  <defs>
    <style>
      .cls-1 {
        fill: none;
        stroke: #fff;
        stroke-width: 8px;
      }
    </style>
  </defs>
  <g id="Layer_1-2" data-name="Layer 1">
    <g>
      <path class="cls-1" d="m4,1113.57c0-153.75,20.9-297.83,62.78-432.15,41.84-134.32,103.65-251.57,185.41-351.85,81.76-100.23,182.95-179.57,303.67-237.97C676.54,33.2,815.74,4,973.41,4s307.05,28.74,430.68,86.14c123.6,57.44,226.75,136.28,309.51,236.51,82.71,100.28,144.99,218.04,186.87,353.31,41.84,135.32,62.78,279.86,62.78,433.61s-20.94,294.46-62.78,427.77c-41.89,133.36-103.66,250.15-185.42,350.39-81.76,100.28-183.96,179.57-306.59,237.97-122.64,58.4-264.76,87.6-426.31,87.6s-303.67-29.2-426.31-87.6c-122.63-58.4-224.83-137.69-306.59-237.97-81.76-100.23-143.07-217.03-183.96-350.39-40.88-133.31-61.32-275.93-61.32-427.77Zm981.09,934.37c136.23,0,253.53-25.78,351.85-77.38,98.27-51.55,179.07-120.17,242.35-205.85,63.23-85.64,109.95-184.91,140.15-297.83,30.16-112.87,45.26-230.67,45.26-353.31,0-146-18.03-276.89-54.02-392.73-36.04-115.79-88.1-214.61-156.22-296.37-68.16-81.76-150.88-144.03-248.19-186.87-97.36-42.79-206.36-64.24-327.03-64.24-134.32,0-250.66,26.28-348.93,78.84-98.32,52.56-179.11,122.18-242.35,208.77-63.28,86.64-110,186.42-140.16,299.29-30.2,112.92-45.26,230.67-45.26,353.31s15.05,243.36,45.26,356.23c30.16,112.92,76.88,212.2,140.16,297.83,63.23,85.68,144.03,153.8,242.35,204.39,98.27,50.64,216.53,75.92,354.77,75.92Z"/>
      <path class="cls-1" d="m2348.69,2161.82V59.48h767.94c136.23,0,248.65,15.6,337.25,46.72,88.55,31.16,158.63,74,210.23,128.48,51.55,54.52,87.59,117.3,108.03,188.33,20.44,71.08,30.66,145.54,30.66,223.37,0,116.8-23.86,213.15-71.54,289.07-47.72,75.92-109.49,135.78-185.41,179.57-75.92,43.8-162.06,74.46-258.41,91.98-96.36,17.52-193.22,26.28-290.53,26.28h-449.66v928.53h-198.56Zm654.06-1097.89c93.44,0,177.11-5.84,251.11-17.52,73.96-11.68,136.73-33.58,188.33-65.7,51.56-32.12,91.48-75.92,119.71-131.4,28.2-55.48,42.34-127.97,42.34-217.53,0-132.35-43.35-232.59-129.94-300.75-86.64-68.12-224.38-102.2-413.17-102.2h-513.9v835.1h455.51Z"/>
      <path class="cls-1" d="m4141.5,2161.82V59.48h1398.64v169.35h-1200.09v759.18h1083.29v169.35h-1083.29v835.1h1229.28v169.36h-1427.83Z"/>
      <path class="cls-1" d="m6124.09,328.11h-5.84v1833.71h-198.56V59.48h224.83l1214.68,1836.63h5.84V59.48h198.55v2102.34h-230.67l-1208.84-1833.71Z"/>
      <path class="cls-1" d="m10337.49,669.74c-40.88-179.07-116.8-306.59-227.75-382.51-110.96-75.92-256-113.88-435.07-113.88-126.56,0-235.55,25.32-327.03,75.92-91.52,50.64-166.94,118.76-226.29,204.39-59.4,85.68-103.2,184.46-131.4,296.37-28.24,111.96-42.34,230.22-42.34,354.77,0,116.8,12.13,231.68,36.5,344.55,24.32,112.92,64.69,213.66,121.17,302.21,56.44,88.6,132.35,160.14,227.75,214.61,95.35,54.52,215.07,81.76,359.15,81.76,89.52,0,171.27-14.6,245.27-43.8,73.96-29.2,138.7-69.58,194.18-121.18,55.48-51.55,102.19-112.42,140.15-182.49,37.96-70.08,66.66-146.95,86.14-230.67h207.31c-23.36,101.24-57.44,197.09-102.2,287.61-44.8,90.52-103.65,169.86-176.65,237.97-73,68.16-161.6,122.18-265.71,162.06-104.16,39.88-226.29,59.86-366.45,59.86-161.59,0-299.79-29.7-414.63-89.06-114.88-59.36-208.77-139.65-281.77-240.89-72.99-101.19-126.05-218.49-159.13-351.85-33.12-133.31-49.64-274.93-49.64-424.85,0-200.47,24.82-370.83,74.46-510.98,49.64-140.16,118.26-254.49,205.85-343.09,87.6-88.56,190.75-152.79,309.51-192.71,118.71-39.88,248.19-59.86,388.35-59.86,107.04,0,206.81,14.14,299.29,42.34,92.44,28.24,174.19,70.58,245.27,127.02,71.04,56.48,129.44,126.06,175.19,208.77,45.72,82.76,77.38,178.62,94.9,287.61h-204.39Z"/>
      <path class="cls-1" d="m10760.83,2161.82L11587.16,59.48h224.83l805.9,2102.34h-204.39l-242.35-659.9h-957.73l-248.19,659.9h-204.39Zm519.75-829.26h823.42l-411.71-1103.73-411.71,1103.73Z"/>
      <path class="cls-1" d="m12901.1,2161.82V59.48h198.55v1932.98h1127.09v169.36h-1325.64Z"/>
      <path class="cls-1" d="m14524.58,2161.82V59.48h198.55v1932.98h1127.09v169.36h-1325.64Z"/>
    </g>
  </g>
</svg>