<?xml version="1.0" encoding="UTF-8"?>
<svg id="Layer_2" data-name="Layer 2" xmlns="http://www.w3.org/2000/svg" viewBox="0 0 6931.26 3082.71">
  <defs>
    <style>
      .cls-1 {
        fill: #fff;
      }

      .cls-2 {
        fill: none;
        stroke: #fff;
        stroke-width: 2px;
      }
    </style>
  </defs>
  <g id="Layer_1-2" data-name="Layer 1">
    <g>
      <path class="cls-2" d="m14.16,485.18c0-67.09,9.12-129.96,27.4-188.57,18.26-58.61,45.23-109.78,80.91-153.54,35.68-43.74,79.83-78.36,132.51-103.84C307.63,13.74,368.38,1,437.18,1s133.99,12.54,187.94,37.59c53.93,25.06,98.95,59.47,135.06,103.21,36.09,43.76,63.27,95.14,81.55,154.17,18.26,59.05,27.39,122.12,27.39,189.21s-9.14,128.49-27.39,186.66c-18.28,58.19-45.23,109.16-80.91,152.9-35.68,43.76-80.27,78.36-133.79,103.84-53.52,25.48-115.53,38.22-186.03,38.22s-132.51-12.74-186.03-38.22c-53.51-25.48-98.11-60.08-133.79-103.84-35.68-43.74-62.43-94.71-80.27-152.9-17.84-58.17-26.76-120.41-26.76-186.66Zm428.12,407.73c59.45,0,110.63-11.25,153.54-33.76,42.88-22.5,78.14-52.44,105.76-89.83,27.59-37.37,47.98-80.69,61.16-129.96,13.16-49.25,19.75-100.66,19.75-154.17,0-63.71-7.87-120.83-23.57-171.37-15.73-50.53-38.44-93.65-68.17-129.33-29.74-35.68-65.84-62.85-108.3-81.55-42.48-18.67-90.05-28.03-142.7-28.03-58.61,0-109.38,11.47-152.26,34.4-42.9,22.93-78.16,53.32-105.75,91.1-27.61,37.81-48,81.35-61.16,130.6-13.18,49.27-19.75,100.66-19.75,154.17s6.57,106.19,19.75,155.45c13.16,49.27,33.55,92.6,61.16,129.96,27.59,37.39,62.85,67.11,105.75,89.19,42.88,22.1,94.49,33.13,154.81,33.13Z"/>
      <path class="cls-2" d="m1037.31,942.6V25.21h335.1c59.45,0,108.5,6.81,147.17,20.39,38.64,13.6,69.22,32.29,91.74,56.06,22.5,23.79,38.22,51.19,47.14,82.18,8.92,31.02,13.38,63.51,13.38,97.47,0,50.97-10.41,93.01-31.22,126.14-20.82,33.13-47.78,59.25-80.91,78.36-33.13,19.11-70.72,32.49-112.76,40.14-42.05,7.64-84.31,11.47-126.78,11.47h-196.22v405.18h-86.64Zm285.41-479.08c40.77,0,77.28-2.55,109.58-7.64,32.27-5.1,59.67-14.65,82.18-28.67,22.5-14.02,39.92-33.13,52.24-57.34,12.31-24.21,18.48-55.84,18.48-94.92,0-57.76-18.91-101.49-56.7-131.24-37.81-29.72-97.91-44.6-180.29-44.6h-224.25v364.41h198.77Z"/>
      <path class="cls-2" d="m1819.63,942.6V25.21h610.32v73.9h-523.68v331.28h472.71v73.9h-472.71v364.41h536.42v73.9h-623.06Z"/>
      <path class="cls-2" d="m2684.77,142.43h-2.55v800.17h-86.64V25.21h98.11l530.05,801.44h2.55V25.21h86.64v917.39h-100.66l-527.5-800.17Z"/>
      <path class="cls-2" d="m4523.35,291.51c-17.84-78.14-50.97-133.79-99.38-166.91-48.42-33.13-111.71-49.69-189.85-49.69-55.22,0-102.79,11.05-142.7,33.13-39.94,22.1-72.85,51.82-98.75,89.19-25.92,37.39-45.03,80.49-57.34,129.33-12.32,48.86-18.47,100.46-18.47,154.81,0,50.97,5.29,101.1,15.93,150.35,10.61,49.27,28.23,93.23,52.88,131.87,24.63,38.66,57.76,69.88,99.38,93.65,41.61,23.79,93.85,35.68,156.72,35.68,39.06,0,74.74-6.37,107.03-19.11,32.27-12.74,60.52-30.36,84.73-52.88,24.21-22.5,44.59-49.06,61.16-79.63,16.56-30.58,29.09-64.13,37.59-100.66h90.46c-10.2,44.18-25.06,86.01-44.6,125.5-19.55,39.5-45.23,74.12-77.09,103.84-31.85,29.74-70.52,53.32-115.95,70.72-45.45,17.4-98.75,26.12-159.91,26.12-70.51,0-130.82-12.96-180.93-38.86-50.13-25.9-91.1-60.94-122.96-105.12-31.85-44.16-55.01-95.34-69.44-153.54-14.45-58.17-21.66-119.97-21.66-185.39,0-87.48,10.83-161.82,32.49-222.98,21.66-61.16,51.61-111.05,89.83-149.71,38.23-38.64,83.24-66.67,135.06-84.09,51.8-17.4,108.3-26.12,169.46-26.12,46.71,0,90.25,6.17,130.6,18.48,40.34,12.32,76.01,30.8,107.03,55.43,31,24.65,56.48,55.01,76.45,91.1,19.95,36.11,33.77,77.94,41.41,125.5h-89.19Z"/>
      <path class="cls-2" d="m4708.09,942.6L5068.67,25.21h98.11l351.67,917.39h-89.19l-105.76-287.96h-417.92l-108.3,287.96h-89.19Zm226.8-361.86h359.31l-179.66-481.63-179.66,481.63Z"/>
      <path class="cls-2" d="m5642.03,942.6V25.21h86.64v843.49h491.82v73.9h-578.47Z"/>
      <path class="cls-2" d="m6350.46,942.6V25.21h86.64v843.49h491.82v73.9h-578.47Z"/>
    </g>
    <g>
      <path class="cls-1" d="m364.45,1877.43c43.7,0,79.18-4.81,106.45-14.43,51.72-18.44,77.58-52.72,77.58-102.84,0-29.26-12.84-51.92-38.49-67.96-25.67-15.64-65.96-29.47-120.88-41.5l-93.82-21.05c-92.22-20.84-155.97-43.5-191.25-67.96-59.75-40.9-89.61-104.84-89.61-191.85,0-79.39,28.87-145.33,86.6-197.86,57.74-52.52,142.53-78.78,254.39-78.78,93.42,0,173.1,24.76,239.06,74.27,65.95,49.52,100.53,121.39,103.74,215.61h-178.02c-3.21-53.32-26.46-91.21-69.76-113.67-28.87-14.83-64.75-22.25-107.65-22.25-47.72,0-85.8,9.62-114.27,28.87-28.47,19.24-42.7,46.11-42.7,80.59,0,31.68,14.03,55.33,42.1,70.97,18.04,10.43,56.53,22.66,115.47,36.69l152.76,36.69c66.95,16.04,117.47,37.49,151.56,64.35,52.92,41.7,79.39,102.04,79.39,181.02s-30.97,148.25-92.92,201.77c-61.95,53.53-149.45,80.29-262.51,80.29s-206.28-26.36-272.44-79.09C33.08,1896.58,0,1824.11,0,1731.88h176.82c5.61,40.5,16.63,70.77,33.08,90.81,30.07,36.49,81.59,54.73,154.56,54.73Z"/>
      <path class="cls-1" d="m1240.71,1686.78h-188.24v318.75h-184.03v-886.48h386.11c89.01,0,159.98,22.85,212.9,68.56,52.92,45.71,79.39,116.48,79.39,212.3,0,104.65-26.46,178.62-79.39,221.92-52.92,43.3-128.5,64.95-226.73,64.95Zm86.6-184.63c24.06-21.25,36.08-54.93,36.08-101.04s-12.13-78.98-36.39-98.63c-24.26-19.64-58.24-29.47-101.94-29.47h-172.6v261.01h172.6c43.7,0,77.78-10.62,102.24-31.87Z"/>
      <path class="cls-1" d="m2113.96,1823.3h-326.56l-61.35,182.23h-193.65l316.34-886.48h209.29l313.94,886.48h-200.87l-57.13-182.23Zm-51.72-152.76l-110.66-348.82-114.27,348.82h224.93Z"/>
      <path class="cls-1" d="m3109.89,1939.37c-66.15,60.55-150.76,90.81-253.8,90.81-127.5,0-227.74-40.9-300.7-122.69-72.98-82.19-109.46-194.86-109.46-337.99,0-154.76,41.5-274.04,124.49-357.84,72.17-72.97,163.98-109.46,275.45-109.46,149.15,0,258.2,48.92,327.17,146.74,38.09,54.94,58.53,110.06,61.34,165.39h-185.23c-12.03-42.49-27.47-74.57-46.31-96.23-33.68-38.49-83.6-57.74-149.75-57.74s-120.49,27.17-159.37,81.49c-38.89,54.33-58.34,131.21-58.34,230.64s20.54,173.91,61.65,223.42c41.09,49.52,93.31,74.27,156.67,74.27s114.46-21.25,148.55-63.75c18.84-22.85,34.48-57.13,46.91-102.84h183.43c-16.04,96.63-56.94,175.22-122.69,235.75Z"/>
      <path class="cls-1" d="m3990.96,1618.22h-430.61v227.93h490.75v159.37h-671.77v-886.48h650.12v156.97h-469.1v188.24h430.61v153.96Z"/>
      <path class="cls-1" d="m4517.19,1877.43c43.7,0,79.18-4.81,106.45-14.43,51.72-18.44,77.58-52.72,77.58-102.84,0-29.26-12.84-51.92-38.49-67.96-25.67-15.64-65.96-29.47-120.88-41.5l-93.82-21.05c-92.22-20.84-155.97-43.5-191.25-67.96-59.75-40.9-89.61-104.84-89.61-191.85,0-79.39,28.87-145.33,86.6-197.86,57.74-52.52,142.53-78.78,254.39-78.78,93.42,0,173.1,24.76,239.06,74.27,65.95,49.52,100.53,121.39,103.74,215.61h-178.02c-3.21-53.32-26.46-91.21-69.76-113.67-28.87-14.83-64.75-22.25-107.65-22.25-47.72,0-85.8,9.62-114.27,28.87-28.47,19.24-42.7,46.11-42.7,80.59,0,31.68,14.03,55.33,42.1,70.97,18.04,10.43,56.53,22.66,115.47,36.69l152.76,36.69c66.95,16.04,117.47,37.49,151.56,64.35,52.92,41.7,79.39,102.04,79.39,181.02s-30.97,148.25-92.92,201.77c-61.95,53.53-149.45,80.29-262.51,80.29s-206.28-26.36-272.44-79.09c-66.15-52.72-99.23-125.19-99.23-217.41h176.82c5.61,40.5,16.63,70.77,33.08,90.81,30.07,36.49,81.59,54.73,154.56,54.73Z"/>
      <path class="cls-1" d="m5545.61,2005.53v-395.73h-346.41v395.73h-183.43v-886.48h183.43v337.99h346.41v-337.99h184.03v886.48h-184.03Z"/>
      <path class="cls-1" d="m5892.02,1119.05h184.03v886.48h-184.03v-886.48Z"/>
      <path class="cls-1" d="m6625.14,1686.78h-188.24v318.75h-184.03v-886.48h386.11c89.01,0,159.98,22.85,212.9,68.56,52.92,45.71,79.39,116.48,79.39,212.3,0,104.65-26.46,178.62-79.39,221.92s-128.5,64.95-226.73,64.95Zm86.6-184.63c24.06-21.25,36.08-54.93,36.08-101.04s-12.13-78.98-36.38-98.63c-24.26-19.64-58.24-29.47-101.94-29.47h-172.6v261.01h172.6c43.7,0,77.78-10.62,102.24-31.87Z"/>
    </g>
    <g>
      <path class="cls-1" d="m659.75,2695.4H229.14v227.93h490.75v159.37H48.11v-886.48h650.12v156.97H229.14v188.24h430.61v153.96Z"/>
      <path class="cls-1" d="m1383.24,2900.48h-326.56l-61.35,182.23h-193.65l316.34-886.48h209.29l313.94,886.48h-200.87l-57.13-182.23Zm-51.72-152.76l-110.66-348.82-114.27,348.82h224.93Z"/>
      <path class="cls-1" d="m2130.2,2735.09h-191.25v347.62h-181.02v-886.48h434.82c62.14,1.2,109.96,8.82,143.44,22.85,33.47,14.04,61.84,34.68,85.1,61.95,19.24,22.46,34.48,47.31,45.71,74.57,11.22,27.27,16.84,58.34,16.84,93.22,0,42.1-10.63,83.5-31.88,124.19-21.26,40.7-56.34,69.46-105.25,86.3,40.9,16.44,69.86,39.8,86.9,70.06,17.04,30.28,25.56,76.48,25.56,138.63v59.54c0,40.5,1.6,67.96,4.81,82.39,4.81,22.85,16.03,39.69,33.68,50.52v22.25h-203.88c-5.62-19.64-9.62-35.48-12.03-47.51-4.81-24.86-7.42-50.31-7.82-76.38l-1.2-82.39c-.81-56.53-11.13-94.21-30.97-113.07-19.85-18.84-57.04-28.27-111.56-28.27Zm112.46-161.18c36.88-16.84,55.33-50.11,55.33-99.83,0-53.72-17.84-89.81-53.53-108.25-20.05-10.42-50.12-15.64-90.21-15.64h-215.31v238.16h209.89c41.7,0,72.97-4.81,93.82-14.43Z"/>
      <path class="cls-1" d="m3287.31,2196.23v156.97h-265.22v729.51h-186.44v-729.51h-266.42v-156.97h718.08Z"/>
      <path class="cls-1" d="m3924.2,3082.71v-395.73h-346.41v395.73h-183.43v-886.48h183.43v337.99h346.41v-337.99h184.03v886.48h-184.03Z"/>
    </g>
  </g>
</svg>